<!DOCTYPE svg PUBLIC "-//W3C//DTD SVG 1.1//EN" "http://www.w3.org/Graphics/SVG/1.1/DTD/svg11.dtd">
<!-- Uploaded to: SVG Repo, www.svgrepo.com, Transformed by: SVG Repo Mixer Tools -->
<svg width="800px" height="800px" viewBox="-68.23 0 516.391 516.391" xmlns="http://www.w3.org/2000/svg" fill="#000000">
<g id="SVGRepo_bgCarrier" stroke-width="0"/>
<g id="SVGRepo_tracerCarrier" stroke-linecap="round" stroke-linejoin="round"/>
<g id="SVGRepo_iconCarrier"> <g id="Group_10" data-name="Group 10" transform="translate(-2801.968 -3056.529)"> <path id="path374" d="M1847.1-1035.128a231.048,231.048,0,0,0,15.4-36.413c3.187-9.8,9.68-21.112,9.373-31.6-.267-8.965-3.693-33.223,1.053-34.541s4.747,25.048,6.853,25.84,5.8-32.96,10.28-34.277,0,34.8,1.587,34.277,11.333-37.441,16.08-36.915,1.32,11.6-.787,20.039-9.227,26.1-6.067,26.632,14.24-34.015,19.773-32.432-15.813,48.778-13.973,50.1,21.093-11.079,23.987-7.517-23.987,21.229-31.106,31.512-16.88,34.8-16.88,34.8q-17.78-4.744-35.573-9.505" transform="translate(976.55 4205.292)" fill="#f7966c"/> <path id="path376" d="M1907.169-1096.907a56.188,56.188,0,0,0-30-9.317l.013-.388a56.557,56.557,0,0,1,30.2,9.383l-.213.323" transform="translate(976.55 4205.292)" fill="#e2474d"/> <path id="path378" d="M1877.7-804.019s-5.973,128.461-16.427,162.808c-.867,2.84-1.813,5.8-2.827,8.84h262.413c-1.16-62.6-3.08-139.866-5.667-156.213-4.48-28.377-22.4-66.219-48.093-85.137s-61.44-21.409-61.44-21.409-57.253-8.464-95.093,0c0,0-13.453-1.495-17.427-22.405s.493-110.033,19.413-150.362c0,0-41.32-17.924-54.266-15.931,0,0-32.573,84.491-32.867,137.414-.293,54.883,16.933,104.558,32.867,122.481s19.413,19.915,19.413,19.915" transform="translate(976.55 4205.292)" fill="#4f334b"/> <path id="path380" d="M1947.182-827.606s-14.506,16.652-15.333,21.323c-.613,3.449,17.987,115.565,27.76,173.912h17.947l63.253-180.013s-12.427-11.385-12.84-15.221,34.413-11.293,33.16-11.293,1.787-37.705,1.787-37.705-15.24-12.441-21.16-10.36l-90.787-11.927s-14.187-4.664-21.627.943c0,0-5.36,57.393-5.36,59.464s23.2,10.879,23.2,10.879" transform="translate(976.55 4205.292)" fill="#6b4668"/> <path id="path382" d="M2019.235-847.891s-12.4,28.065-23.907,52.787c-9.24,19.88-17.893,37.573-19.04,36.76-1.32-.947-5.693-24.853-9.6-47.725-3.667-21.372-6.92-41.821-6.92-41.821,10.653-14.308,59.467,0,59.467,0" transform="translate(976.55 4205.292)" fill="#e5e5e5"/> <path id="path384" d="M1999.968-829.137c-.747,3.223-7.773,5.5-7.587,8.153.12,1.557,1.667,14.969,2.947,25.879-9.24,19.88-17.893,37.573-19.04,36.76-1.32-.947-5.693-24.853-9.6-47.725l12.227-17.764s-7.293-9.859-5.547-14.6,9.533-13.276,9.533-13.276l17.067,1.983s.76,17.352,0,20.587" transform="translate(976.55 4205.292)" fill="#4f334b"/> <path id="path386" d="M1978.862-913.955s-24.227,10.311-27.893,15.064,3.667,54.3,8.44,57.973,27.52-11.379,31.2-8.809,11,19.452,19.08,22.021,38.613-44.776,33.88-55.044c-2.933-6.383-9.654-25.332-16.267-25.7s-48.44-5.505-48.44-5.505" transform="translate(976.55 4205.292)" fill="#ffffff"/> <path id="path388" d="M2029.582-938.39s-2.547,29.691-3.213,42.195c-.107,2.037-.173,3.62-.16,4.544.027,2.079-2.12,7.064-5.56,12.779-7.413,12.339-20.813,28.065-31.146,25.145-13.467-3.8-19.787-34.853-21.013-41.6-.147-.827-.213-1.295-.213-1.295l2.28-6.5v-.013l15.987-45.581,43.04,10.328" transform="translate(976.55 4205.292)" fill="#f7966c"/> <path id="path390" d="M2029.582-938.39s-2.547,29.691-3.213,42.195c-7.813,5.04-20.76,11.608-31.573,8.743-16.786-4.461-24.24-15.671-24.24-15.671v-.013l15.987-45.581,43.04,10.328" transform="translate(976.55 4205.292)" fill="#e62"/> <path id="path392" d="M2065.968-649.678h-.027a.3.3,0,0,1-.28-.32c2.693-30.853,3.413-56.787,2.24-79.293-.24-4.267-.44-8.613-.64-12.813-.92-20.133-1.88-40.96-7.333-61.239a.3.3,0,0,1,.2-.363.311.311,0,0,1,.373.209c5.467,20.339,6.427,41.192,7.36,61.365.187,4.2.387,8.533.627,12.813,1.187,22.533.453,48.493-2.227,79.373a.3.3,0,0,1-.293.267" transform="translate(976.55 4205.292)" fill="#ffffff"/> <path id="path394" d="M1964.608-649.505h0a.291.291,0,0,1-.293-.307c.293-36.093,5.467-70.533,11.68-108.573a.3.3,0,0,1,.333-.253.3.3,0,0,1,.253.347c-6.213,38.027-11.387,72.426-11.68,108.493a.3.3,0,0,1-.293.293" transform="translate(976.55 4205.292)" fill="#ffffff"/> <path id="path396" d="M2055.662-979.271a94.145,94.145,0,0,1-.027,32.293,48.927,48.927,0,0,1-4.32,14.713c-2.347,4.565-5.987,8.616-10.707,10.644a396.737,396.737,0,0,1-5.24-44.9q-.68-11.286-.72-22.6c-.013-5.041-1.693-15.235,5.893-15.713,9.947-.627,13.867,18.839,15.12,25.559" transform="translate(976.55 4205.292)" fill="#6a3b1a"/> <path id="path398" d="M1933.729-954.164c.213,8.737,1.92,17.671,6.653,25.02s12.867,12.871,21.613,12.812q-3.56-23.6-4.96-47.455c-.333-5.809-.613-11.637-1.453-17.4-.653-4.471-1.413-12.955-4.947-16.2-7.493-6.9-14.013,19.068-14.92,23.107a82.323,82.323,0,0,0-1.987,20.119" transform="translate(976.55 4205.292)" fill="#6a3b1a"/> <path id="path400" d="M2049.875-962.73a12.869,12.869,0,0,1,11.187,7.028,15.617,15.617,0,0,1,.08,13.441,19.957,19.957,0,0,1-9.76,9.5,10.432,10.432,0,0,1-6.72,1.1,9.869,9.869,0,0,1-5.733-4.733c-5.293-8.7-1.4-26.237,10.947-26.341" transform="translate(976.55 4205.292)" fill="#f7966c"/> <path id="path402" d="M2041.928-953.808a13.376,13.376,0,0,0-1.053,11.107c.6,1.809,1.693,3.679,3.533,4.187a4.537,4.537,0,0,0,4.16-1.211,9.628,9.628,0,0,0,2.32-3.841c1.28-3.513,2.653-10.389.253-13.751s-7.787,1.227-9.214,3.509" transform="translate(976.55 4205.292)" fill="#e62"/> <path id="path404" d="M2047.075-935.012a12.867,12.867,0,0,1-7.04-13.665c.493-3.44,2.88-7.789,6.507-9.447a6.653,6.653,0,0,1,6.627.567,7.782,7.782,0,0,1,3.293,8.653l-.467-.152a7.281,7.281,0,0,0-3.093-8.084,6.193,6.193,0,0,0-6.16-.532c-3.453,1.584-5.747,5.759-6.227,9.065a12.386,12.386,0,0,0,6.76,13.143l-.2.452" transform="translate(976.55 4205.292)" fill="#e2474d"/> <path id="path406" d="M1938.862-962.73a12.89,12.89,0,0,0-11.2,7.028,15.663,15.663,0,0,0-.08,13.441,19.929,19.929,0,0,0,9.773,9.5,10.407,10.407,0,0,0,6.707,1.1,9.79,9.79,0,0,0,5.733-4.733c5.307-8.7,1.413-26.237-10.933-26.341" transform="translate(976.55 4205.292)" fill="#f7966c"/> <path id="path408" d="M1946.808-953.808a13.423,13.423,0,0,1,1.04,11.107c-.587,1.809-1.693,3.679-3.52,4.187a4.572,4.572,0,0,1-4.173-1.211,9.45,9.45,0,0,1-2.307-3.841c-1.293-3.513-2.653-10.389-.253-13.751s7.787,1.227,9.213,3.509" transform="translate(976.55 4205.292)" fill="#e62"/> <path id="path410" d="M1941.662-935.012l-.213-.452a12.368,12.368,0,0,0,6.76-13.143c-.467-3.307-2.76-7.481-6.227-9.065a6.2,6.2,0,0,0-6.16.532,7.293,7.293,0,0,0-3.08,8.084l-.48.152a7.821,7.821,0,0,1,3.293-8.653,6.675,6.675,0,0,1,6.64-.565c3.613,1.656,6.013,6.005,6.507,9.445a12.885,12.885,0,0,1-7.04,13.665" transform="translate(976.55 4205.292)" fill="#e2474d"/> <path id="path412" d="M2045.768-930.271c-3.307,19.107-34.253,35.129-50.08,35.712s-40.613-15.521-47.92-34.641c-2.467-6.491-3.146-15.925-2.573-25.959,1.107-19.453,6.96-41.144,13.52-47.815,9.907-10.089,65.827-31.211,86.12,11.337,0,0,1.893,18.941,2.16,37.2.133,9.005-.147,17.856-1.227,24.165" transform="translate(976.55 4205.292)" fill="#f7966c"/> <path id="path414" d="M2046.995-954.436c-.88.876-1.76,1.737-2.613,2.6a16.046,16.046,0,0,1-11.507-7.643,16.049,16.049,0,0,1-1.133-13.757A42.981,42.981,0,0,1,2016-977.114c-3.56,4.655-10.027,6.113-15.88,5.767s-11.547-2.14-17.373-2.64a39.972,39.972,0,0,0-36.64,18.62l-.907.208c1.107-19.453,6.96-41.144,13.52-47.815,9.906-10.089,65.826-31.211,86.12,11.337,0,0,1.893,18.941,2.16,37.2" transform="translate(976.55 4205.292)" fill="#e62"/> <path id="path416" d="M2049.622-1001.671a47.592,47.592,0,0,1,3.04,16.152c.2,6.857-.733,13.692-1.68,20.488l-4,29.107c.227-1.624-5.813-6.284-6.72-8.136a13.843,13.843,0,0,1-1.4-5.789,47.08,47.08,0,0,1,.92-5.123,10.832,10.832,0,0,1-3.547-10.9c.453-1.693,1.333-3.455.747-5.1-.44-1.251-1.613-2.065-2.52-3.031-3.44-3.64-2.307-8.728-.6-12.876a60.554,60.554,0,0,0-5.347-3.569,9.739,9.739,0,0,0-8.12-.093c-5.987,2.5-9,9.192-15.213,11.115a10.232,10.232,0,0,1-9.827-1.893c-1.88-1.744-2.88-4.229-4.373-6.313a15.524,15.524,0,0,0-14.747-6.1,12.1,12.1,0,0,1,10.227,3.889,18.837,18.837,0,0,1,4.6,10.205c-1.494-3.22-5.613-4.139-9.173-4.181s-7.4.3-10.32-1.719c-2.533-1.752-4.267-6.073-7.773-5.815-1.173.085-2.333.94-3.507,1.16-1.827.341-3.68-.016-5.453.665-.547.209-6.027,3.331-5.867,3.548a17.023,17.023,0,0,1,.2,19.125c1.987.521,2.933,2.884,2.813,4.931s-.987,3.977-1.307,6c-.48,2.979.227,6,.493,9.008a14.825,14.825,0,0,1-1.907,8.755c-.773,1.5-2.987,4.695-2.24,6.452-4.813-11.244-9.133-22.867-10.48-35.023-2.12-18.865,4.387-38.853,20.547-49.855,9.573-6.509,21.36-8.831,32.893-9.767,10.613-.86,21.467-.647,31.627,2.5a55.1,55.1,0,0,1,22.373,13.411,25.849,25.849,0,0,1,5.64,8.776" transform="translate(976.55 4205.292)" fill="#6a3b1a"/> <path id="path418" d="M1938.369-977.018l-64.693-39.7,138.813-58.155,92.853,71.063-45.48,19.483s-95.4-11.572-121.493,7.311" transform="translate(976.55 4205.292)" fill="#4f334b"/> <path id="path420" d="M1934.075-962.654s31.64-27.975,74.293-22.127,49.133,25.248,49.133,25.248l5.12-53.771s-27.893-24.987-71.48-21.581-64.187,23.557-64.187,23.557l7.12,48.673" transform="translate(976.55 4205.292)" fill="#6b4668"/> <path id="path422" d="M1895.849-1002.814l-.16-.044-22.173-13.608-.133-.276.173-.251,26.107-10.936a.3.3,0,0,1,.387.159.289.289,0,0,1-.16.389l-25.573,10.712,21.693,13.305a.294.294,0,0,1,.093.408l-.253.141" transform="translate(976.55 4205.292)" fill="#ffffff"/> <path id="path686" d="M2201.315-780.025c-5.387,0-5.387,8.36,0,8.36s5.387-8.36,0-8.36" transform="translate(976.55 4205.292)" fill="#f5d74b"/> <path id="path974" d="M2120.862-632.372h-21.053l20.16-43.333c.333,14.613.627,29.347.894,43.333h0" transform="translate(976.55 4205.292)" fill="#877585"/> <path id="path978" d="M2201.315-771.665c-5.387,0-5.387-8.36,0-8.36s5.373,8.36,0,8.36" transform="translate(976.55 4205.292)" fill="#f8e485"/> </g> </g>
</svg>